<?xml version="1.0" standalone="no"?><!DOCTYPE svg PUBLIC "-//W3C//DTD SVG 1.1//EN" "http://www.w3.org/Graphics/SVG/1.1/DTD/svg11.dtd"><svg t="1547441042360" class="icon" style="" viewBox="0 0 1025 1024" version="1.1" xmlns="http://www.w3.org/2000/svg" p-id="1821" xmlns:xlink="http://www.w3.org/1999/xlink" width="16.015625" height="16"><defs><style type="text/css"></style></defs><path d="M0 47.722453l0 737.653644c0 36.023971 27.087792 74.654328 60.36575 86.569233L490.652074 1024 490.652074 156.166708 60.36575 4.112039C27.087792-7.849409 0 11.698482 0 47.722453zM963.152534 3.227729 810.632438 69.411304l0 737.653644c0 35.977429-23.876353 81.356462-53.337818 101.090524l-117.333891 79.634386 323.191804-116.728837C996.849375 859.564999 1023.937167 821.353526 1023.937167 785.376097L1023.937167 47.722453C1023.937167 11.698482 996.849375-8.03558 963.152534 3.227729zM767.952876 785.376097 767.952876 47.722453c0-35.977429-23.876353-48.823186-53.337818-29.089124l-181.329964 137.579921L533.285094 1024l181.329964-137.533379C744.076523 866.686017 767.952876 821.353526 767.952876 785.376097z" p-id="1822" fill="#2c2c2c"></path></svg>